<svg width="36" height="37" viewBox="0 0 36 37" fill="none" xmlns="http://www.w3.org/2000/svg">
<path fill-rule="evenodd" clip-rule="evenodd" d="M18.368 1.55176L14.5122 9.61392L8.12441 3.34981L6.51648 19.8676L11.8743 17.9175L11.8744 17.9176L6.51648 19.8677L18.3631 31.4851L18.368 31.4952L18.3728 31.4851L30.2195 19.8677L24.8616 17.9176L24.8617 17.9175L30.2195 19.8676L28.6116 3.34981L22.2238 9.61392L18.368 1.55176ZM15.7048 16.5235H15.7044L15.7043 16.5235H15.7046L15.7048 16.5235ZM21.0314 16.5235H21.0317L21.0316 16.5235H21.0312L21.0314 16.5235Z" fill="white"/>
<path d="M11.2075 34.0991L18.3679 19.1274L25.5283 34.0991H18.3679H11.2075Z" fill="white"/>
</svg>
